# xmcd
#
# Track frame offsets:
#	150
#	14174
#	43609
#	72435
#	106249
#
# Disc length: 1857 seconds
#
# Revision: 1
# Processed by: cddbd v1.5.2PL0 Copyright (c) Steve Scherf et al.
# Submitted via: audiograbber 1.83.01
#
DISCID=41073f05
DTITLE=Vintage Beat - Sometimes
DYEAR=2002
DGENRE=Dance
TTITLE0=Sometimes (Radio Edit)
TTITLE1=Sometimes (Club Mix)
TTITLE2=Sometimes (Original Mix)
TTITLE3=Sometimes (André Visior Remix)
TTITLE4=Sometimes (Yanou Remix)
EXTD=
EXTT0=
EXTT1=
EXTT2=
EXTT3=
EXTT4=
PLAYORDER=
